<svg id="visual" viewBox="0 0 1920 1080" width="1920" height="1080" xmlns="http://www.w3.org/2000/svg" xmlns:xlink="http://www.w3.org/1999/xlink" version="1.1"><rect x="0" y="0" width="1920" height="1080" fill="#ffffff"></rect><path d="M0 531L45.7 530.7C91.3 530.3 182.7 529.7 274.2 540.7C365.7 551.7 457.3 574.3 548.8 548.8C640.3 523.3 731.7 449.7 823 442C914.3 434.3 1005.7 492.7 1097 508.3C1188.3 524 1279.7 497 1371.2 470C1462.7 443 1554.3 416 1645.8 398.7C1737.3 381.3 1828.7 373.7 1874.3 369.8L1920 366L1920 1081L1874.3 1081C1828.7 1081 1737.3 1081 1645.8 1081C1554.3 1081 1462.7 1081 1371.2 1081C1279.7 1081 1188.3 1081 1097 1081C1005.7 1081 914.3 1081 823 1081C731.7 1081 640.3 1081 548.8 1081C457.3 1081 365.7 1081 274.2 1081C182.7 1081 91.3 1081 45.7 1081L0 1081Z" fill="#4d92ef"></path><path d="M0 616L45.7 590.5C91.3 565 182.7 514 274.2 519C365.7 524 457.3 585 548.8 599C640.3 613 731.7 580 823 559.5C914.3 539 1005.7 531 1097 545.3C1188.3 559.7 1279.7 596.3 1371.2 593.2C1462.7 590 1554.3 547 1645.8 533.5C1737.3 520 1828.7 536 1874.3 544L1920 552L1920 1081L1874.3 1081C1828.7 1081 1737.3 1081 1645.8 1081C1554.3 1081 1462.7 1081 1371.2 1081C1279.7 1081 1188.3 1081 1097 1081C1005.7 1081 914.3 1081 823 1081C731.7 1081 640.3 1081 548.8 1081C457.3 1081 365.7 1081 274.2 1081C182.7 1081 91.3 1081 45.7 1081L0 1081Z" fill="#2c9ef0"></path><path d="M0 753L45.7 740.8C91.3 728.7 182.7 704.3 274.2 676C365.7 647.7 457.3 615.3 548.8 593C640.3 570.7 731.7 558.3 823 576.3C914.3 594.3 1005.7 642.7 1097 664.3C1188.3 686 1279.7 681 1371.2 656C1462.7 631 1554.3 586 1645.8 599C1737.3 612 1828.7 683 1874.3 718.5L1920 754L1920 1081L1874.3 1081C1828.7 1081 1737.3 1081 1645.8 1081C1554.3 1081 1462.7 1081 1371.2 1081C1279.7 1081 1188.3 1081 1097 1081C1005.7 1081 914.3 1081 823 1081C731.7 1081 640.3 1081 548.8 1081C457.3 1081 365.7 1081 274.2 1081C182.7 1081 91.3 1081 45.7 1081L0 1081Z" fill="#01a9ed"></path><path d="M0 807L45.7 778.3C91.3 749.7 182.7 692.3 274.2 690.7C365.7 689 457.3 743 548.8 772C640.3 801 731.7 805 823 803.3C914.3 801.7 1005.7 794.3 1097 790.8C1188.3 787.3 1279.7 787.7 1371.2 785.2C1462.7 782.7 1554.3 777.3 1645.8 759.3C1737.3 741.3 1828.7 710.7 1874.3 695.3L1920 680L1920 1081L1874.3 1081C1828.7 1081 1737.3 1081 1645.8 1081C1554.3 1081 1462.7 1081 1371.2 1081C1279.7 1081 1188.3 1081 1097 1081C1005.7 1081 914.3 1081 823 1081C731.7 1081 640.3 1081 548.8 1081C457.3 1081 365.7 1081 274.2 1081C182.7 1081 91.3 1081 45.7 1081L0 1081Z" fill="#00b2e8"></path><path d="M0 848L45.7 835C91.3 822 182.7 796 274.2 785.8C365.7 775.7 457.3 781.3 548.8 790.3C640.3 799.3 731.7 811.7 823 828.8C914.3 846 1005.7 868 1097 859C1188.3 850 1279.7 810 1371.2 804C1462.7 798 1554.3 826 1645.8 838.3C1737.3 850.7 1828.7 847.3 1874.3 845.7L1920 844L1920 1081L1874.3 1081C1828.7 1081 1737.3 1081 1645.8 1081C1554.3 1081 1462.7 1081 1371.2 1081C1279.7 1081 1188.3 1081 1097 1081C1005.7 1081 914.3 1081 823 1081C731.7 1081 640.3 1081 548.8 1081C457.3 1081 365.7 1081 274.2 1081C182.7 1081 91.3 1081 45.7 1081L0 1081Z" fill="#00bae0"></path><path d="M0 843L45.7 840.7C91.3 838.3 182.7 833.7 274.2 847.8C365.7 862 457.3 895 548.8 916.2C640.3 937.3 731.7 946.7 823 932C914.3 917.3 1005.7 878.7 1097 857.3C1188.3 836 1279.7 832 1371.2 847.5C1462.7 863 1554.3 898 1645.8 912C1737.3 926 1828.7 919 1874.3 915.5L1920 912L1920 1081L1874.3 1081C1828.7 1081 1737.3 1081 1645.8 1081C1554.3 1081 1462.7 1081 1371.2 1081C1279.7 1081 1188.3 1081 1097 1081C1005.7 1081 914.3 1081 823 1081C731.7 1081 640.3 1081 548.8 1081C457.3 1081 365.7 1081 274.2 1081C182.7 1081 91.3 1081 45.7 1081L0 1081Z" fill="#00c1d5"></path><path d="M0 930L45.7 945C91.3 960 182.7 990 274.2 1005.7C365.7 1021.3 457.3 1022.7 548.8 1013.7C640.3 1004.7 731.7 985.3 823 973.7C914.3 962 1005.7 958 1097 964C1188.3 970 1279.7 986 1371.2 997C1462.7 1008 1554.3 1014 1645.8 1005.8C1737.3 997.7 1828.7 975.3 1874.3 964.2L1920 953L1920 1081L1874.3 1081C1828.7 1081 1737.3 1081 1645.8 1081C1554.3 1081 1462.7 1081 1371.2 1081C1279.7 1081 1188.3 1081 1097 1081C1005.7 1081 914.3 1081 823 1081C731.7 1081 640.3 1081 548.8 1081C457.3 1081 365.7 1081 274.2 1081C182.7 1081 91.3 1081 45.7 1081L0 1081Z" fill="#24c7c7"></path></svg>